<?xml version="1.0" encoding="iso-8859-1"?>
<!-- Generator: Adobe Illustrator 19.0.0, SVG Export Plug-In . SVG Version: 6.00 Build 0)  -->
<svg version="1.1" id="Layer_1" xmlns="http://www.w3.org/2000/svg" xmlns:xlink="http://www.w3.org/1999/xlink" x="0px" y="0px"
	 viewBox="0 0 512 512" style="enable-background:new 0 0 512 512;" xml:space="preserve">
<circle style="fill:#31BAFD;" cx="256" cy="256" r="256"/>
<path style="fill:#2B9ED8;" d="M263.818,511.871c133.423-4.005,241.19-110.085,247.853-242.824L399.084,156.46l-19.365,29.805
	l-62.952-62.952l-56.96,9.502l-64.576,5.23l169.081,167.733L117.796,366.33L263.818,511.871z"/>
<rect x="206.972" y="132.068" style="fill:#2B3B4E;" width="14.731" height="30.384"/>
<rect x="290.306" y="132.068" style="fill:#111E2B;" width="14.731" height="30.384"/>
<path style="fill:#2B3B4E;" d="M381.602,369.147H130.398c-9.656,0-17.482-7.827-17.482-17.482V204.326
	c0-9.656,7.827-17.482,17.482-17.482h251.204c9.656,0,17.482,7.827,17.482,17.482v147.339
	C399.084,361.319,391.258,369.147,381.602,369.147z"/>
<path style="fill:#111E2B;" d="M381.602,186.844H255.426v182.303h126.176c9.656,0,17.482-7.827,17.482-17.482V204.326
	C399.084,194.67,391.258,186.844,381.602,186.844z"/>
<path style="fill:#324A5E;" d="M129.982,371.448h252.035c9.425,0,17.067-7.64,17.067-17.067V336.46H112.916v17.922
	C112.916,363.806,120.556,371.448,129.982,371.448z"/>
<path style="fill:#2B3B4E;" d="M255.426,336.46v34.987h126.592c9.425,0,17.067-7.64,17.067-17.067v-17.922H255.426V336.46z"/>
<path style="fill:#324A5E;" d="M129.982,234.72h252.035c9.425,0,17.067-7.64,17.067-17.067V156.46H112.916v61.195
	C112.916,227.08,120.556,234.72,129.982,234.72z"/>
<g>
	<path style="fill:#2B3B4E;" d="M255.426,156.46v78.262h126.592c9.425,0,17.067-7.64,17.067-17.067V156.46H255.426z"/>
	<rect x="195.232" y="123.311" style="fill:#2B3B4E;" width="121.535" height="14.731"/>
</g>
<rect x="255.431" y="123.311" style="fill:#111E2B;" width="61.342" height="14.731"/>
<rect x="199.111" y="221.091" style="fill:#31BAFD;" width="113.778" height="28.444"/>
<rect x="255.431" y="221.091" style="fill:#2B9ED8;" width="57.458" height="28.444"/>
<g>
</g>
<g>
</g>
<g>
</g>
<g>
</g>
<g>
</g>
<g>
</g>
<g>
</g>
<g>
</g>
<g>
</g>
<g>
</g>
<g>
</g>
<g>
</g>
<g>
</g>
<g>
</g>
<g>
</g>
</svg>
